<svg width="33" height="33" viewBox="0 0 33 33" fill="none" xmlns="http://www.w3.org/2000/svg">
<path fill-rule="evenodd" clip-rule="evenodd" d="M4.73273 5.88516C4.37374 5.88516 4.08273 6.17617 4.08273 6.53516C4.08273 6.89414 4.37374 7.18516 4.73273 7.18516H4.73503H4.73735H4.73967H4.74201H4.74435H4.74669H4.74905H4.75141H4.75379H4.75617H4.75855H4.76095H4.76335H4.76576H4.76818H4.77061H4.77305H4.77549H4.77794H4.7804H4.78286H4.78534H4.78782H4.79031H4.7928H4.79531H4.79782H4.80034H4.80286H4.8054H4.80794H4.81049H4.81304H4.81561H4.81818H4.82076H4.82334H4.82594H4.82854H4.83115H4.83376H4.83638H4.83901H4.84165H4.84429H4.84695H4.8496H4.85227H4.85494H4.85762H4.86031H4.863H4.8657H4.86841H4.87112H4.87385H4.87657H4.87931H4.88205H4.8848H4.88756H4.89032H4.89309H4.89586H4.89865H4.90144H4.90423H4.90703H4.90984H4.91266H4.91548H4.91831H4.92115H4.92399H4.92684H4.92969H4.93256H4.93542H4.9383H4.94118H4.94407H4.94696H4.94986H4.95277H4.95568H4.9586H4.96152H4.96445H4.96739H4.97034H4.97329H4.97624H4.9792H4.98217H4.98515H4.98813H4.99111H4.99411H4.9971H5.00011H5.00312H5.00613H5.00916H5.01218H5.01522H5.01826H5.0213H5.02435H5.02741H5.03047H5.03354H5.03662H5.0397H5.04278H5.04587H5.04897H5.05207H5.05518H5.05829H5.06141H5.06454H5.06766H5.0708H5.07394H5.07709H5.08024H5.08339H5.08656H5.08972H5.0929H5.09608H5.09926H5.10245H5.10564H5.10884H5.11204H5.11525H5.11847H5.12169H5.12491H5.12814H5.13137H5.13461H5.13786H5.14111H5.14436H5.14762H5.15089H5.15415H5.15743H5.16071H5.16399H5.16728H5.17057H5.17387H5.17717H5.18048H5.18379H5.18711H5.19043H5.19376H5.19709H5.20042H5.20376H5.2071H5.21045H5.21381H5.21716H5.22053H5.22389H5.22726H5.23064H5.23402H5.2374H5.24079H5.24418H5.24758H5.25098H5.25438H5.25779H5.26121H5.26462H5.26804H5.27147H5.2749H5.27833H5.28177H5.28521H5.28866H5.29211H5.29556H5.29902H5.30248H5.30595H5.30942H5.31289H5.31637H5.31985H5.32333H5.32682H5.33031H5.33381H5.33731H5.34081H5.34432H5.34783H5.35134H5.35486H5.35838H5.36191H5.36543H5.36896H5.3725H5.37604H5.37958H5.38313H5.38667H5.39023H5.39378H5.39734H5.4009H5.40447H5.40804H5.41161H5.41518H5.41876H5.42234H5.42593H5.42951H5.4331H5.4367H5.44029H5.44389H5.4475H5.4511H5.45471H5.45832H5.46194H5.46555H5.46917H5.4728H5.47642H5.48005H5.48368H5.48731H5.49095H5.49459H5.49823H5.50188H5.50553H5.50918H5.51283H5.51648H5.52014H5.5238H5.52746H5.53113H5.5348H5.53847H5.54214H5.54582H5.54949H5.55317H5.55686H5.56054H5.56423H5.56792H5.57161H5.5753H5.579H5.58269H5.58639H5.5901H5.5938H5.59751H5.60122H5.60493H5.60864H5.61235H5.61607H5.61979H5.62351H5.62723H5.63096H5.63468H5.63841H5.64214H5.64587H5.6496H5.65334H5.65708H5.66081H5.66455H5.6683H5.67204H5.67579H5.67953H5.68328H5.68703H5.69078H5.69454H5.69829H5.70205H5.7058H5.70956H5.71332H5.71708H5.72085H5.72461H5.72838H5.73214H5.73591H5.73968H5.74345H5.74722H5.751H5.75477H5.75855H5.76232H5.7661H5.76988H5.77366H5.77744H5.78122H5.785H5.78879H5.79257H5.79636H5.80015H5.80393H5.80772H5.81151H5.8153H5.81909H5.82288H5.82667H5.83047H5.83426H5.83805H5.84185H5.84565H5.84944H5.85324H5.85704H5.86083H5.86463H5.86843H5.87223H5.87603H5.87983H5.88363H5.88743H5.89123H5.89504H5.89884H5.90264H5.90644H5.91025H5.91405H5.91785H5.92166H5.92546H5.92926H5.93307H5.93687H5.94068H5.94448H5.94828H5.95209H5.95589H5.9597H5.9635H5.96731H5.97111H5.97491H5.97872H5.98252H5.98632H5.99013H5.99393H5.99773H6.00154H6.00534H6.00914H6.01294H6.01674H6.02054H6.02434H6.02814H6.03194H6.03574H6.03954H6.04334H6.04714H6.05093H6.05473H6.05853H6.06232H6.06612H6.06991H6.0737H6.07749H6.08129H6.08508H6.08887H6.09266H6.09645H6.10023H6.10402H6.10781H6.11159H6.11538H6.11916H6.12294H6.12672H6.1305H6.13428H6.13806H6.14184H6.14561H6.14939H6.15316H6.15693H6.1607H6.16447H6.16824H6.17201H6.17578H6.17954H6.1833H6.18707H6.19083H6.19459H6.19834H6.2021H6.20585H6.20961H6.21336H6.21711H6.22086H6.22461H6.22835H6.2321H6.23584H6.23958H6.24332H6.24706H6.25079H6.25453H6.25826H6.26199H6.26572H6.26944H6.27317H6.27689H6.28061H6.28433H6.28805H6.29177H6.29548H6.29919H6.3029H6.30661H6.31031H6.31401H6.31772H6.32141H6.32511H6.3288H6.3325H6.33619H6.33987H6.34356H6.34724H6.35092H6.3546H6.35828H6.36195H6.36562H6.36929H6.37296H6.37662H6.38028H6.38394H6.3876H6.39125H6.3949H6.39855H6.4022H6.40584H6.40948H6.41312H6.41675H6.42038H6.42401H6.42764H6.43126H6.43489H6.4385H6.44212H6.44573H6.44934H6.45295H6.45655H6.46015H6.46375H6.46734H6.47094H6.47452H6.47811H6.48169H6.48527C6.59105 7.18516 6.68349 7.25673 6.70991 7.35943L7.18138 9.19164L9.6393 18.7437C9.81352 19.4208 10.424 19.894 11.1231 19.894H22.5076C22.5266 19.894 22.5455 19.8932 22.5644 19.8915L22.5648 19.8915L22.5649 19.8915L22.5712 19.8911C22.5795 19.8906 22.5945 19.8898 22.6152 19.8893C22.657 19.8884 22.7206 19.8886 22.7983 19.8942C22.9577 19.9056 23.156 19.9379 23.3438 20.0135C23.5281 20.0876 23.6859 20.1964 23.7998 20.3552C23.911 20.5102 24.0151 20.7611 24.0151 21.1824C24.0151 21.5708 23.9264 21.8134 23.8275 21.9685C23.7279 22.1249 23.5912 22.2341 23.4309 22.3125C23.0878 22.4805 22.6924 22.4798 22.5801 22.4742L22.5796 22.4741C22.5526 22.4728 22.5118 22.4707 22.4664 22.4707H10.4392C10.0802 22.4707 9.78922 22.7618 9.78922 23.1207C9.78922 23.4797 10.0802 23.7707 10.4392 23.7707H22.4664C22.4757 23.7707 22.487 23.7711 22.5149 23.7725C22.697 23.7817 23.3603 23.7945 24.0024 23.4802C24.3348 23.3175 24.6723 23.0617 24.9237 22.6673C25.1759 22.2717 25.3151 21.7779 25.3151 21.1824C25.3151 20.5333 25.1496 20.0068 24.8563 19.5976C24.5656 19.1924 24.184 18.9503 23.829 18.8074C23.6876 18.7505 23.5479 18.7083 23.4155 18.677L26.5103 10.4513C26.8872 9.44942 26.1467 8.37966 25.0763 8.37966H8.31479L7.9689 7.03547C7.79471 6.35854 7.18451 5.88516 6.48527 5.88516H6.48169H6.47811H6.47452H6.47094H6.46734H6.46375H6.46015H6.45655H6.45295H6.44934H6.44573H6.44212H6.4385H6.43489H6.43126H6.42764H6.42401H6.42038H6.41675H6.41312H6.40948H6.40584H6.4022H6.39855H6.3949H6.39125H6.3876H6.38394H6.38028H6.37662H6.37296H6.36929H6.36562H6.36195H6.35828H6.3546H6.35092H6.34724H6.34356H6.33987H6.33619H6.3325H6.3288H6.32511H6.32141H6.31772H6.31401H6.31031H6.30661H6.3029H6.29919H6.29548H6.29177H6.28805H6.28433H6.28061H6.27689H6.27317H6.26944H6.26572H6.26199H6.25826H6.25453H6.25079H6.24706H6.24332H6.23958H6.23584H6.2321H6.22835H6.22461H6.22086H6.21711H6.21336H6.20961H6.20585H6.2021H6.19834H6.19459H6.19083H6.18707H6.1833H6.17954H6.17578H6.17201H6.16824H6.16447H6.1607H6.15693H6.15316H6.14939H6.14561H6.14184H6.13806H6.13428H6.1305H6.12672H6.12294H6.11916H6.11538H6.11159H6.10781H6.10402H6.10023H6.09645H6.09266H6.08887H6.08508H6.08129H6.07749H6.0737H6.06991H6.06612H6.06232H6.05853H6.05473H6.05093H6.04714H6.04334H6.03954H6.03574H6.03194H6.02814H6.02434H6.02054H6.01674H6.01294H6.00914H6.00534H6.00154H5.99773H5.99393H5.99013H5.98632H5.98252H5.97872H5.97491H5.97111H5.96731H5.9635H5.9597H5.95589H5.95209H5.94828H5.94448H5.94068H5.93687H5.93307H5.92926H5.92546H5.92166H5.91785H5.91405H5.91025H5.90644H5.90264H5.89884H5.89504H5.89123H5.88743H5.88363H5.87983H5.87603H5.87223H5.86843H5.86463H5.86083H5.85704H5.85324H5.84944H5.84565H5.84185H5.83805H5.83426H5.83047H5.82667H5.82288H5.81909H5.8153H5.81151H5.80772H5.80393H5.80015H5.79636H5.79257H5.78879H5.785H5.78122H5.77744H5.77366H5.76988H5.7661H5.76232H5.75855H5.75477H5.751H5.74722H5.74345H5.73968H5.73591H5.73214H5.72838H5.72461H5.72085H5.71708H5.71332H5.70956H5.7058H5.70205H5.69829H5.69454H5.69078H5.68703H5.68328H5.67953H5.67579H5.67204H5.6683H5.66455H5.66081H5.65708H5.65334H5.6496H5.64587H5.64214H5.63841H5.63468H5.63096H5.62723H5.62351H5.61979H5.61607H5.61235H5.60864H5.60493H5.60122H5.59751H5.5938H5.5901H5.58639H5.58269H5.579H5.5753H5.57161H5.56792H5.56423H5.56054H5.55686H5.55317H5.54949H5.54582H5.54214H5.53847H5.5348H5.53113H5.52746H5.5238H5.52014H5.51648H5.51283H5.50918H5.50553H5.50188H5.49823H5.49459H5.49095H5.48731H5.48368H5.48005H5.47642H5.4728H5.46917H5.46555H5.46194H5.45832H5.45471H5.4511H5.4475H5.44389H5.44029H5.4367H5.4331H5.42951H5.42593H5.42234H5.41876H5.41518H5.41161H5.40804H5.40447H5.4009H5.39734H5.39378H5.39023H5.38667H5.38313H5.37958H5.37604H5.3725H5.36896H5.36543H5.36191H5.35838H5.35486H5.35134H5.34783H5.34432H5.34081H5.33731H5.33381H5.33031H5.32682H5.32333H5.31985H5.31637H5.31289H5.30942H5.30595H5.30248H5.29902H5.29556H5.29211H5.28866H5.28521H5.28177H5.27833H5.2749H5.27147H5.26804H5.26462H5.26121H5.25779H5.25438H5.25098H5.24758H5.24418H5.24079H5.2374H5.23402H5.23064H5.22726H5.22389H5.22053H5.21716H5.21381H5.21045H5.2071H5.20376H5.20042H5.19709H5.19376H5.19043H5.18711H5.18379H5.18048H5.17717H5.17387H5.17057H5.16728H5.16399H5.16071H5.15743H5.15415H5.15089H5.14762H5.14436H5.14111H5.13786H5.13461H5.13137H5.12814H5.12491H5.12169H5.11847H5.11525H5.11204H5.10884H5.10564H5.10245H5.09926H5.09608H5.0929H5.08972H5.08656H5.08339H5.08024H5.07709H5.07394H5.0708H5.06766H5.06454H5.06141H5.05829H5.05518H5.05207H5.04897H5.04587H5.04278H5.0397H5.03662H5.03354H5.03047H5.02741H5.02435H5.0213H5.01826H5.01522H5.01218H5.00916H5.00613H5.00312H5.00011H4.9971H4.99411H4.99111H4.98813H4.98515H4.98217H4.9792H4.97624H4.97329H4.97034H4.96739H4.96445H4.96152H4.9586H4.95568H4.95277H4.94986H4.94696H4.94407H4.94118H4.9383H4.93542H4.93256H4.92969H4.92684H4.92399H4.92115H4.91831H4.91548H4.91266H4.90984H4.90703H4.90423H4.90144H4.89865H4.89586H4.89309H4.89032H4.88756H4.8848H4.88205H4.87931H4.87657H4.87385H4.87112H4.86841H4.8657H4.863H4.86031H4.85762H4.85494H4.85227H4.8496H4.84695H4.84429H4.84165H4.83901H4.83638H4.83376H4.83115H4.82854H4.82594H4.82334H4.82076H4.81818H4.81561H4.81304H4.81049H4.80794H4.8054H4.80286H4.80034H4.79782H4.79531H4.7928H4.79031H4.78782H4.78534H4.78286H4.7804H4.77794H4.77549H4.77305H4.77061H4.76818H4.76576H4.76335H4.76095H4.75855H4.75617H4.75379H4.75141H4.74905H4.74669H4.74435H4.74201H4.73967H4.73735H4.73503H4.73273ZM11.1231 18.594H22.0577L25.2936 9.99351C25.3507 9.84173 25.2385 9.67966 25.0763 9.67966H8.6493L10.8983 18.4197C10.9247 18.5223 11.0172 18.594 11.1231 18.594ZM14.6846 11.7441C14.6846 11.3852 14.3936 11.0941 14.0346 11.0941C13.6756 11.0941 13.3846 11.3852 13.3846 11.7441V16.5716C13.3846 16.9306 13.6756 17.2216 14.0346 17.2216C14.3936 17.2216 14.6846 16.9306 14.6846 16.5716V11.7441ZM17.4142 11.7441C17.4142 11.3852 17.1232 11.0941 16.7642 11.0941C16.4052 11.0941 16.1142 11.3852 16.1142 11.7441V16.5716C16.1142 16.9306 16.4052 17.2216 16.7642 17.2216C17.1232 17.2216 17.4142 16.9306 17.4142 16.5716V11.7441ZM20.1438 11.7441C20.1438 11.3852 19.8528 11.0941 19.4938 11.0941C19.1348 11.0941 18.8438 11.3852 18.8438 11.7441V16.5716C18.8438 16.9306 19.1348 17.2216 19.4938 17.2216C19.8528 17.2216 20.1438 16.9306 20.1438 16.5716V11.7441ZM11.9085 26.5243C11.4474 26.5243 11.0737 26.898 11.0737 27.3591C11.0737 27.8201 11.4474 28.1939 11.9085 28.1939C12.3695 28.1939 12.7433 27.8201 12.7433 27.3591C12.7433 26.898 12.3695 26.5243 11.9085 26.5243ZM9.77367 27.3591C9.77367 26.1801 10.7295 25.2243 11.9085 25.2243C13.0875 25.2243 14.0433 26.1801 14.0433 27.3591C14.0433 28.5381 13.0875 29.4939 11.9085 29.4939C10.7295 29.4939 9.77367 28.5381 9.77367 27.3591ZM21.7558 26.5243C21.2947 26.5243 20.921 26.898 20.921 27.3591C20.921 27.8201 21.2947 28.1939 21.7558 28.1939C22.2168 28.1939 22.5906 27.8201 22.5906 27.3591C22.5906 26.898 22.2168 26.5243 21.7558 26.5243ZM19.621 27.3591C19.621 26.1801 20.5768 25.2243 21.7558 25.2243C22.9348 25.2243 23.8906 26.1801 23.8906 27.3591C23.8906 28.5381 22.9348 29.4939 21.7558 29.4939C20.5768 29.4939 19.621 28.5381 19.621 27.3591Z" fill="#3C5564"/>
</svg>
