<svg width="29" height="29" viewBox="0 0 29 29" fill="none" xmlns="http://www.w3.org/2000/svg">
<path fill-rule="evenodd" clip-rule="evenodd" d="M4.1875 7.21002C4.1875 6.89798 4.44046 6.64502 4.7525 6.64502H24.5931C24.9051 6.64502 25.1581 6.89798 25.1581 7.21002C25.1581 7.52206 24.9051 7.77502 24.5931 7.77502H4.7525C4.44046 7.77502 4.1875 7.52206 4.1875 7.21002ZM4.1875 13.922C4.1875 13.61 4.44046 13.357 4.7525 13.357H24.5931C24.9051 13.357 25.1581 13.61 25.1581 13.922C25.1581 14.234 24.9051 14.487 24.5931 14.487H4.7525C4.44046 14.487 4.1875 14.234 4.1875 13.922ZM4.7525 20.3571C4.44046 20.3571 4.1875 20.61 4.1875 20.9221C4.1875 21.2341 4.44046 21.4871 4.7525 21.4871H24.5931C24.9051 21.4871 25.1581 21.2341 25.1581 20.9221C25.1581 20.61 24.9051 20.3571 24.5931 20.3571H4.7525Z" fill="#3C5564"/>
</svg>
