<svg width="33" height="33" viewBox="0 0 33 33" fill="none" xmlns="http://www.w3.org/2000/svg">
<path fill-rule="evenodd" clip-rule="evenodd" d="M6.31172 14.5195C6.31172 9.90794 10.0501 6.16952 14.6617 6.16952C19.2733 6.16952 23.0117 9.90794 23.0117 14.5195C23.0117 19.1311 19.2733 22.8695 14.6617 22.8695C10.0501 22.8695 6.31172 19.1311 6.31172 14.5195ZM14.6617 4.86952C9.33217 4.86952 5.01172 9.18997 5.01172 14.5195C5.01172 19.8491 9.33217 24.1695 14.6617 24.1695C17.0926 24.1695 19.3135 23.2707 21.0103 21.7873L27.2021 27.9791C27.4559 28.233 27.8675 28.233 28.1213 27.9791C28.3752 27.7253 28.3752 27.3138 28.1213 27.0599L21.9295 20.8681C23.4129 19.1713 24.3117 16.9504 24.3117 14.5195C24.3117 9.18997 19.9913 4.86952 14.6617 4.86952Z" fill="#3C5564"/>
</svg>
